<svg version="1.1" viewBox="0.0 0.0 960.0 960.0" width="960" height="960" fill="none" stroke="none" stroke-linecap="square" stroke-miterlimit="10" xmlns:xlink="http://www.w3.org/1999/xlink" xmlns="http://www.w3.org/2000/svg"><clipPath id="p.0"><path d="m0 0l960.0 0l0 960.0l-960.0 0l0 -960.0z" clip-rule="nonzero"/></clipPath><g clip-path="url(#p.0)"><path fill="#000000" fill-opacity="0.0" d="m0 0l960.0 0l0 960.0l-960.0 0z" fill-rule="evenodd"/><path fill="#000000" fill-opacity="0.0" d="m480.00262 45.64042l0 0c175.68353 0 334.068 105.829414 401.29877 268.13998c67.230774 162.31055 30.06781 349.13782 -94.15985 473.3642c-124.2276 124.22638 -311.0552 161.38751 -473.3651 94.15515c-162.30989 -67.23236 -268.13776 -225.61792 -268.13602 -401.30142l434.3622 0.0043029785z" fill-rule="evenodd"/><path fill="#000000" fill-opacity="0.0" d="m480.00262 45.64042l0 0c175.68353 0 334.068 105.829414 401.29877 268.13998c67.230774 162.31055 30.06781 349.13782 -94.15985 473.3642c-124.2276 124.22638 -311.0552 161.38751 -473.3651 94.15515c-162.30989 -67.23236 -268.13776 -225.61792 -268.13602 -401.30142" fill-rule="evenodd"/><path stroke="#2c7c9a" stroke-width="24.0" stroke-linejoin="round" stroke-linecap="butt" d="m480.00262 45.64042l0 0c175.68353 0 334.068 105.829414 401.29877 268.13998c67.230774 162.31055 30.06781 349.13782 -94.15985 473.3642c-124.2276 124.22638 -311.0552 161.38751 -473.3651 94.15515c-162.30989 -67.23236 -268.13776 -225.61792 -268.13602 -401.30142" fill-rule="evenodd"/></g></svg>