<svg version="1.1" width="128" height="128" viewBox="0.0 0.0 128.0 128.0" fill="none" stroke="none" stroke-linecap="square" stroke-miterlimit="10" xmlns:xlink="http://www.w3.org/1999/xlink" xmlns="http://www.w3.org/2000/svg"><clipPath id="p.0"><path d="m0 0l128.0 0l0 128.0l-128.0 0l0 -128.0z" clip-rule="nonzero"/></clipPath><g clip-path="url(#p.0)"><path fill="#000000" fill-opacity="0.0" d="m0 0l128.0 0l0 128.0l-128.0 0z" fill-rule="evenodd"/><defs><linearGradient id="p.1" gradientUnits="userSpaceOnUse" gradientTransform="matrix(13.45434223994269 0.0 0.0 13.45434223994269 0.0 0.0)" spreadMethod="pad" x1="-4.75683546116593" y1="4.756804217898586" x2="4.7568038368831305" y2="14.27047818835409"><stop offset="0.0" stop-color="#bfbfbf"/><stop offset="1.0" stop-color="#737373"/></linearGradient></defs><path fill="url(#p.1)" d="m-9.4225725E-5 -9.4225725E-5l128.0 0l0 128.0l-128.0 0zm27.24992 27.24992l0 73.50016l73.50016 0l0 -73.50016z" fill-rule="evenodd"/><defs><radialGradient id="p.2" gradientUnits="userSpaceOnUse" gradientTransform="matrix(7.881246090830163 0.0 0.0 7.881246090830163 0.0 0.0)" spreadMethod="pad" cx="8.119877227362048" cy="8.119877227362048" fx="8.119877227362048" fy="8.119877227362048" r="7.881246089935303"><stop offset="0.0" stop-color="#696969"/><stop offset="1.0" stop-color="#1d1d1d"/></radialGradient></defs><path fill="url(#p.2)" d="m20.07349 34.99969l0 0c0 -8.243513 6.6826878 -14.926201 14.926201 -14.926201l57.990116 0l0 0c3.9586792 0 7.755211 1.5725784 10.55442 4.371784c2.799202 2.7992058 4.3717804 6.595743 4.3717804 10.554417l0 57.990116c0 8.243515 -6.682686 14.926201 -14.926201 14.926201l-57.990116 0c-8.243513 0 -14.926201 -6.682686 -14.926201 -14.926201z" fill-rule="evenodd"/><defs><linearGradient id="p.3" gradientUnits="userSpaceOnUse" gradientTransform="matrix(2.5961813265476974 0.0 0.0 2.5961813265476974 0.0 0.0)" spreadMethod="pad" x1="23.35350025048746" y1="41.58035116027268" x2="25.949681577035157" y2="41.58035116027268"><stop offset="0.0" stop-color="#d9d9d9"/><stop offset="0.5" stop-color="#f3f3f3"/><stop offset="1.0" stop-color="#d9d9d9"/></linearGradient></defs><path fill="url(#p.3)" d="m60.62992 91.16273l6.740158 0l0 16.787407l-6.740158 0z" fill-rule="evenodd"/><path fill="#f3f3f3" d="m42.139107 89.42519l43.74803 0l0 4.3149643l-43.74803 0z" fill-rule="evenodd"/><path fill="#75ff39" d="m58.712894 115.59161l1.795208 3.7331696l6.9675827 0l1.7952042 -3.7331696z" fill-rule="evenodd"/><path fill="#8fff5f" d="m66.623665 121.1115l-2.6298409 5.4219894l-2.629837 -5.4219894z" fill-rule="evenodd"/><path fill="#4dff00" d="m55.88242 109.74935l1.9483261 4.042343l12.342258 0l1.9483261 -4.042343z" fill-rule="evenodd"/><path fill="#6e6e6e" d="m58.703373 12.594948l1.7952042 -3.7331724l6.9675865 0l1.7952042 3.7331724z" fill-rule="evenodd"/><path fill="#828282" d="m66.61414 7.0750575l-2.6298409 -5.421987l-2.629837 5.421987z" fill-rule="evenodd"/><path fill="#595959" d="m55.8729 18.437206l1.9483261 -4.0423365l12.342258 0l1.9483261 4.0423365z" fill-rule="evenodd"/><defs><radialGradient id="p.4" gradientUnits="userSpaceOnUse" gradientTransform="matrix(8.478858729664715 0.0 0.0 8.478858729664715 0.0 0.0)" spreadMethod="pad" cx="4.542542126704629" cy="4.551508909430175" fx="4.542542126704629" fy="4.551508909430175" r="8.478858947753906"><stop offset="0.0" stop-color="#fde7ca"/><stop offset="1.0" stop-color="#dbc09c"/></radialGradient></defs><path fill="url(#p.4)" d="m38.51557 64.00893l0 0c0 -14.037601 11.379723 -25.417324 25.417324 -25.417324l0 0c6.7410927 0 13.206089 2.677887 17.97276 7.444561c4.766678 4.76667 7.444565 11.231667 7.444565 17.972763l0 0c0 14.037598 -11.379723 25.41732 -25.417324 25.41732l0 0c-14.037601 0 -25.417324 -11.379723 -25.417324 -25.41732z" fill-rule="evenodd"/><path fill="#000000" fill-opacity="0.0" d="m56.28659 76.09064l0.14974594 0.053367615l0.15009308 0.06314087l0.14169693 0.053359985l0.16653824 0.053359985l0.15009308 0.062934875l0.17493439 0.07291412l0.18333054 0.062942505l0.18333054 0.07270813l0.17493439 0.058250427l0.19137955 0.06314087l0.19172668 0.06782532l0.16653824 0.058250427l0.20012665 0.06781769l0.20327377 0.07373047l0.26659775 0.087379456l0.2414093 0.08248901l0.26660156 0.08228302l0.22496414 0.058250427l0.2501564 0.07759857l0.216568 0.058250427l0.22496796 0.07271576l0.2749977 0.06314087l0.24980545 0.07759857l0.26659775 0.064971924l0.3915062 0.10183716l0.29179 0.07270813l0.37471008 0.08248901l0.45832825 0.10183716l0.54159546 0.11630249l0.4579773 0.087371826l0.41669464 0.08248901l0.72317505 0.1105957l0.7497711 0.10183716l0.6832962 0.08248901l0.6329117 0.062934875l0.4667282 0.038902283l0.5916214 0.03869629l0.50801086 0.029129028l0.56643677 0.019348145l0.49996185 0.004890442l0.6497116 0.0048828125l0.61681366 0l0.55804443 -0.014663696l0.42473602 -0.019348145l0.45832825 -0.03401184l0.5083618 -0.033813477l0.38311005 -0.029121399l0.5164032 -0.053359985l0.41669464 -0.048477173l0.7665634 -0.09124756l0.5996704 -0.10183716l0.600029 -0.092063904l0.46637726 -0.09226227l0.5916214 -0.10183716l0.49996948 -0.10183716l0.4579773 -0.11629486l0.5331955 -0.12628174l0.35021973 -0.08717346l0.20817566 -0.058250427l0.43138885 -0.12607574l0.5667801 -0.15519714l0.44958496 -0.135849l0.5251541 -0.16008759l0.4163437 -0.14054108l0.46672058 -0.15519714l0.61647034 -0.22322845l0.48316956 -0.17943573l0.40829468 -0.16966248l0.28305054 -0.09694672" fill-rule="evenodd"/><path stroke="#000000" stroke-width="1.0" stroke-linejoin="round" stroke-linecap="butt" d="m56.28659 76.09064l0.14974594 0.053367615l0.15009308 0.06314087l0.14169693 0.053359985l0.16653824 0.053359985l0.15009308 0.062934875l0.17493439 0.07291412l0.18333054 0.062942505l0.18333054 0.07270813l0.17493439 0.058250427l0.19137955 0.06314087l0.19172668 0.06782532l0.16653824 0.058250427l0.20012665 0.06781769l0.20327377 0.07373047l0.26659775 0.087379456l0.2414093 0.08248901l0.26660156 0.08228302l0.22496414 0.058250427l0.2501564 0.07759857l0.216568 0.058250427l0.22496796 0.07271576l0.2749977 0.06314087l0.24980545 0.07759857l0.26659775 0.064971924l0.3915062 0.10183716l0.29179 0.07270813l0.37471008 0.08248901l0.45832825 0.10183716l0.54159546 0.11630249l0.4579773 0.087371826l0.41669464 0.08248901l0.72317505 0.1105957l0.7497711 0.10183716l0.6832962 0.08248901l0.6329117 0.062934875l0.4667282 0.038902283l0.5916214 0.03869629l0.50801086 0.029129028l0.56643677 0.019348145l0.49996185 0.004890442l0.6497116 0.0048828125l0.61681366 0l0.55804443 -0.014663696l0.42473602 -0.019348145l0.45832825 -0.03401184l0.5083618 -0.033813477l0.38311005 -0.029121399l0.5164032 -0.053359985l0.41669464 -0.048477173l0.7665634 -0.09124756l0.5996704 -0.10183716l0.600029 -0.092063904l0.46637726 -0.09226227l0.5916214 -0.10183716l0.49996948 -0.10183716l0.4579773 -0.11629486l0.5331955 -0.12628174l0.35021973 -0.08717346l0.20817566 -0.058250427l0.43138885 -0.12607574l0.5667801 -0.15519714l0.44958496 -0.135849l0.5251541 -0.16008759l0.4163437 -0.14054108l0.46672058 -0.15519714l0.61647034 -0.22322845l0.48316956 -0.17943573l0.40829468 -0.16966248l0.28305054 -0.09694672" fill-rule="evenodd"/><path fill="#ffffff" d="m58.11074 56.395275l0 0c0 -2.0699806 1.678051 -3.7480316 3.7480316 -3.7480316l0 0c0.9940376 0 1.9473648 0.3948822 2.6502533 1.0977745c0.7028961 0.7028923 1.0977783 1.6562195 1.0977783 2.650257l0 0c0 2.0699806 -1.678051 3.7480316 -3.7480316 3.7480316l0 0c-2.0699806 0 -3.7480316 -1.678051 -3.7480316 -3.7480316z" fill-rule="evenodd"/><defs><linearGradient id="p.5" gradientUnits="userSpaceOnUse" gradientTransform="matrix(6.125448407575902 0.0 0.0 6.125448407575902 0.0 0.0)" spreadMethod="pad" x1="12.8410514845737" y1="13.308146955621815" x2="17.172453244052456" y2="8.976856502205134"><stop offset="0.0" stop-color="#666666"/><stop offset="1.0" stop-color="#999999"/></linearGradient></defs><path fill="url(#p.5)" d="m72.438324 40.11286l-2.251976 -0.8136482l2.251976 4.813648l-1.5013199 2.624672l-1.0 4.43832l-2.123352 1.687664l0.43569183 5.6377945l3.3123322 2.7979012l2.251976 6.3753242l5.249344 1.813652l4.0629883 -1.2519684l3.186348 1.9396286l2.1259918 0.49868774l0.43569183 -1.4986877l0.1889801 -1.5013123l0.24933624 -2.186348l0.1889801 -2.5643044l-0.37532806 -3.1233597l-0.93963623 -3.8136482l-0.9370041 -2.5616798l-1.561676 -2.7506561l-2.1863556 -3.0l-2.6876602 -3.0l-3.627304 -2.4986877l-3.0603638 -1.5013123z" fill-rule="evenodd"/><path fill="#ff0000" d="m74.42307 56.395275l0 0c0 -2.0699806 1.6780548 -3.7480316 3.7480316 -3.7480316l0 0c0.99404144 0 1.9473648 0.3948822 2.650261 1.0977745c0.7028885 0.7028923 1.0977707 1.6562195 1.0977707 2.650257l0 0c0 2.0699806 -1.6780472 3.7480316 -3.7480316 3.7480316l0 0c-2.0699768 0 -3.7480316 -1.678051 -3.7480316 -3.7480316z" fill-rule="evenodd"/><path fill="#990000" d="m77.67037 56.395275l0 0c0 -0.826252 0.66981506 -1.4960632 1.4960632 -1.4960632l0 0c0.39678192 0 0.77731323 0.15761948 1.0578766 0.43818665c0.28057098 0.28056717 0.43818665 0.66109467 0.43818665 1.0578766l0 0c0 0.826252 -0.66980743 1.4960632 -1.4960632 1.4960632l0 0c-0.82624817 0 -1.4960632 -0.66981125 -1.4960632 -1.4960632z" fill-rule="evenodd"/><path fill="#000000" d="m61.21835 56.395275l0 0c0 -0.826252 0.66981125 -1.4960632 1.4960632 -1.4960632l0 0c0.39678192 0 0.7773094 0.15761948 1.0578766 0.43818665c0.28056717 0.28056717 0.43819046 0.66109467 0.43819046 1.0578766l0 0c0 0.826252 -0.66981506 1.4960632 -1.496067 1.4960632l0 0c-0.826252 0 -1.4960632 -0.66981125 -1.4960632 -1.4960632z" fill-rule="evenodd"/></g></svg>